<mxfile host="app.diagrams.net" agent="Mozilla/5.0 (Windows NT 10.0; Win64; x64) AppleWebKit/537.36 (KHTML, like Gecko) Chrome/136.0.0.0 Safari/537.36" version="26.2.13">
  <diagram name="페이지-1" id="u4H2TjK39akYJ7ZPBIRg">
    <mxGraphModel dx="1454" dy="1142" grid="1" gridSize="10" guides="1" tooltips="1" connect="1" arrows="1" fold="1" page="1" pageScale="1" pageWidth="1500" pageHeight="1300" math="0" shadow="0">
      <root>
        <mxCell id="0" />
        <mxCell id="1" parent="0" />
        <mxCell id="-he7Gmgk-taw1Ec9X0cC-44" value="" style="group;fontFamily=Noto Sans KR;fontSource=https%3A%2F%2Ffonts.googleapis.com%2Fcss%3Ffamily%3DNoto%2BSans%2BKR;" parent="1" vertex="1" connectable="0">
          <mxGeometry x="1012" y="610" width="276" height="110" as="geometry" />
        </mxCell>
        <mxCell id="-he7Gmgk-taw1Ec9X0cC-17" value="&lt;font data-font-src=&quot;https://fonts.googleapis.com/css?family=Noto+Sans+KR&quot;&gt;교수&lt;/font&gt;" style="rounded=0;whiteSpace=wrap;html=1;fontFamily=Noto Sans KR;fontSource=https%3A%2F%2Ffonts.googleapis.com%2Fcss%3Ffamily%3DNoto%2BSans%2BKR;" parent="-he7Gmgk-taw1Ec9X0cC-44" vertex="1">
          <mxGeometry x="108" width="60" height="30" as="geometry" />
        </mxCell>
        <mxCell id="-he7Gmgk-taw1Ec9X0cC-19" value="&lt;font&gt;(PK) 교수번호&lt;/font&gt;" style="ellipse;whiteSpace=wrap;html=1;fontFamily=Noto Sans KR;fontSource=https%3A%2F%2Ffonts.googleapis.com%2Fcss%3Ffamily%3DNoto%2BSans%2BKR;fontStyle=4" parent="-he7Gmgk-taw1Ec9X0cC-44" vertex="1">
          <mxGeometry x="8" y="80" width="80" height="30" as="geometry" />
        </mxCell>
        <mxCell id="-he7Gmgk-taw1Ec9X0cC-20" value="&lt;font&gt;이름&lt;/font&gt;" style="ellipse;whiteSpace=wrap;html=1;fontFamily=Noto Sans KR;fontSource=https%3A%2F%2Ffonts.googleapis.com%2Fcss%3Ffamily%3DNoto%2BSans%2BKR;" parent="-he7Gmgk-taw1Ec9X0cC-44" vertex="1">
          <mxGeometry x="94" y="80" width="50" height="30" as="geometry" />
        </mxCell>
        <mxCell id="-he7Gmgk-taw1Ec9X0cC-21" value="연락처" style="ellipse;whiteSpace=wrap;html=1;fontFamily=Noto Sans KR;fontSource=https%3A%2F%2Ffonts.googleapis.com%2Fcss%3Ffamily%3DNoto%2BSans%2BKR;" parent="-he7Gmgk-taw1Ec9X0cC-44" vertex="1">
          <mxGeometry x="151" y="80" width="50" height="30" as="geometry" />
        </mxCell>
        <mxCell id="-he7Gmgk-taw1Ec9X0cC-22" value="이메일" style="ellipse;whiteSpace=wrap;html=1;fontFamily=Noto Sans KR;fontSource=https%3A%2F%2Ffonts.googleapis.com%2Fcss%3Ffamily%3DNoto%2BSans%2BKR;" parent="-he7Gmgk-taw1Ec9X0cC-44" vertex="1">
          <mxGeometry x="208" y="80" width="50" height="30" as="geometry" />
        </mxCell>
        <mxCell id="-he7Gmgk-taw1Ec9X0cC-26" value="" style="endArrow=none;html=1;rounded=0;entryX=0.5;entryY=1;entryDx=0;entryDy=0;exitX=0.5;exitY=0;exitDx=0;exitDy=0;fontFamily=Noto Sans KR;fontSource=https%3A%2F%2Ffonts.googleapis.com%2Fcss%3Ffamily%3DNoto%2BSans%2BKR;" parent="-he7Gmgk-taw1Ec9X0cC-44" source="-he7Gmgk-taw1Ec9X0cC-19" target="-he7Gmgk-taw1Ec9X0cC-17" edge="1">
          <mxGeometry width="50" height="50" relative="1" as="geometry">
            <mxPoint x="173" y="260" as="sourcePoint" />
            <mxPoint x="223" y="210" as="targetPoint" />
          </mxGeometry>
        </mxCell>
        <mxCell id="-he7Gmgk-taw1Ec9X0cC-27" value="" style="endArrow=none;html=1;rounded=0;entryX=0.5;entryY=1;entryDx=0;entryDy=0;exitX=0.5;exitY=0;exitDx=0;exitDy=0;fontFamily=Noto Sans KR;fontSource=https%3A%2F%2Ffonts.googleapis.com%2Fcss%3Ffamily%3DNoto%2BSans%2BKR;" parent="-he7Gmgk-taw1Ec9X0cC-44" source="-he7Gmgk-taw1Ec9X0cC-20" target="-he7Gmgk-taw1Ec9X0cC-17" edge="1">
          <mxGeometry width="50" height="50" relative="1" as="geometry">
            <mxPoint x="173" y="260" as="sourcePoint" />
            <mxPoint x="223" y="210" as="targetPoint" />
          </mxGeometry>
        </mxCell>
        <mxCell id="-he7Gmgk-taw1Ec9X0cC-28" value="" style="endArrow=none;html=1;rounded=0;entryX=0.5;entryY=1;entryDx=0;entryDy=0;exitX=0.5;exitY=0;exitDx=0;exitDy=0;fontFamily=Noto Sans KR;fontSource=https%3A%2F%2Ffonts.googleapis.com%2Fcss%3Ffamily%3DNoto%2BSans%2BKR;" parent="-he7Gmgk-taw1Ec9X0cC-44" source="-he7Gmgk-taw1Ec9X0cC-21" target="-he7Gmgk-taw1Ec9X0cC-17" edge="1">
          <mxGeometry width="50" height="50" relative="1" as="geometry">
            <mxPoint x="173" y="260" as="sourcePoint" />
            <mxPoint x="223" y="210" as="targetPoint" />
          </mxGeometry>
        </mxCell>
        <mxCell id="-he7Gmgk-taw1Ec9X0cC-29" value="" style="endArrow=none;html=1;rounded=0;entryX=0.5;entryY=1;entryDx=0;entryDy=0;exitX=0.5;exitY=0;exitDx=0;exitDy=0;fontFamily=Noto Sans KR;fontSource=https%3A%2F%2Ffonts.googleapis.com%2Fcss%3Ffamily%3DNoto%2BSans%2BKR;" parent="-he7Gmgk-taw1Ec9X0cC-44" source="-he7Gmgk-taw1Ec9X0cC-22" target="-he7Gmgk-taw1Ec9X0cC-17" edge="1">
          <mxGeometry width="50" height="50" relative="1" as="geometry">
            <mxPoint x="173" y="260" as="sourcePoint" />
            <mxPoint x="223" y="210" as="targetPoint" />
          </mxGeometry>
        </mxCell>
        <mxCell id="qAFrtIwpJTjvJXIb0N1f-30" value="" style="endArrow=none;html=1;rounded=0;exitX=1;exitY=0.5;exitDx=0;exitDy=0;fontFamily=Noto Sans KR;fontSource=https%3A%2F%2Ffonts.googleapis.com%2Fcss%3Ffamily%3DNoto%2BSans%2BKR;entryX=0;entryY=0.5;entryDx=0;entryDy=0;shape=link;" parent="1" source="qAFrtIwpJTjvJXIb0N1f-89" target="qAFrtIwpJTjvJXIb0N1f-105" edge="1">
          <mxGeometry width="50" height="50" relative="1" as="geometry">
            <mxPoint x="850" y="410" as="sourcePoint" />
            <mxPoint x="1000" y="438" as="targetPoint" />
          </mxGeometry>
        </mxCell>
        <mxCell id="qAFrtIwpJTjvJXIb0N1f-163" value="1" style="edgeLabel;html=1;align=center;verticalAlign=middle;resizable=0;points=[];pointerEvents=0;fontFamily=Helvetica;fontSize=12;fontColor=default;fillColor=none;gradientColor=none;" parent="qAFrtIwpJTjvJXIb0N1f-30" vertex="1" connectable="0">
          <mxGeometry x="-0.5936" y="-1" relative="1" as="geometry">
            <mxPoint as="offset" />
          </mxGeometry>
        </mxCell>
        <mxCell id="qAFrtIwpJTjvJXIb0N1f-86" value="" style="endArrow=none;html=1;rounded=0;fontFamily=Helvetica;fontSize=12;fontColor=default;entryX=0.5;entryY=0;entryDx=0;entryDy=0;exitX=0;exitY=0.5;exitDx=0;exitDy=0;shape=link;" parent="1" source="qAFrtIwpJTjvJXIb0N1f-98" target="-he7Gmgk-taw1Ec9X0cC-1" edge="1">
          <mxGeometry width="50" height="50" relative="1" as="geometry">
            <mxPoint x="600" y="490" as="sourcePoint" />
            <mxPoint x="970" y="600" as="targetPoint" />
            <Array as="points">
              <mxPoint x="345" y="250" />
            </Array>
          </mxGeometry>
        </mxCell>
        <mxCell id="qAFrtIwpJTjvJXIb0N1f-146" value="1" style="edgeLabel;html=1;align=center;verticalAlign=middle;resizable=0;points=[];pointerEvents=0;fontFamily=Helvetica;fontSize=12;fontColor=default;fillColor=none;gradientColor=none;" parent="qAFrtIwpJTjvJXIb0N1f-86" vertex="1" connectable="0">
          <mxGeometry x="0.7967" y="-1" relative="1" as="geometry">
            <mxPoint y="1" as="offset" />
          </mxGeometry>
        </mxCell>
        <mxCell id="p_DmAXAKI90noaZqmgIT-13" value="1" style="edgeLabel;html=1;align=center;verticalAlign=middle;resizable=0;points=[];" parent="qAFrtIwpJTjvJXIb0N1f-86" vertex="1" connectable="0">
          <mxGeometry x="-0.8252" y="-5" relative="1" as="geometry">
            <mxPoint y="2" as="offset" />
          </mxGeometry>
        </mxCell>
        <mxCell id="qAFrtIwpJTjvJXIb0N1f-17" value="&lt;font&gt;(PK) 수강번호&lt;/font&gt;" style="ellipse;whiteSpace=wrap;html=1;fontFamily=Noto Sans KR;fontSource=https%3A%2F%2Ffonts.googleapis.com%2Fcss%3Ffamily%3DNoto%2BSans%2BKR;fontStyle=4" parent="1" vertex="1">
          <mxGeometry x="750" y="460" width="80" height="30" as="geometry" />
        </mxCell>
        <mxCell id="qAFrtIwpJTjvJXIb0N1f-18" value="&lt;font&gt;&lt;u&gt;(FK) 학번&lt;/u&gt;&lt;/font&gt;" style="ellipse;whiteSpace=wrap;html=1;fontFamily=Noto Sans KR;fontSource=https%3A%2F%2Ffonts.googleapis.com%2Fcss%3Ffamily%3DNoto%2BSans%2BKR;" parent="1" vertex="1">
          <mxGeometry x="840" y="460" width="50" height="30" as="geometry" />
        </mxCell>
        <mxCell id="qAFrtIwpJTjvJXIb0N1f-20" value="&lt;font&gt;신청일자&lt;/font&gt;" style="ellipse;whiteSpace=wrap;html=1;fontFamily=Noto Sans KR;fontSource=https%3A%2F%2Ffonts.googleapis.com%2Fcss%3Ffamily%3DNoto%2BSans%2BKR;" parent="1" vertex="1">
          <mxGeometry x="990" y="460" width="50" height="30" as="geometry" />
        </mxCell>
        <mxCell id="qAFrtIwpJTjvJXIb0N1f-23" value="" style="endArrow=none;html=1;rounded=0;exitX=0.5;exitY=0;exitDx=0;exitDy=0;entryX=0.5;entryY=1;entryDx=0;entryDy=0;fontFamily=Noto Sans KR;fontSource=https%3A%2F%2Ffonts.googleapis.com%2Fcss%3Ffamily%3DNoto%2BSans%2BKR;" parent="1" source="qAFrtIwpJTjvJXIb0N1f-17" target="qAFrtIwpJTjvJXIb0N1f-89" edge="1">
          <mxGeometry width="50" height="50" relative="1" as="geometry">
            <mxPoint x="520" y="360" as="sourcePoint" />
            <mxPoint x="805" y="390" as="targetPoint" />
          </mxGeometry>
        </mxCell>
        <mxCell id="qAFrtIwpJTjvJXIb0N1f-24" value="" style="endArrow=none;html=1;rounded=0;entryX=0.5;entryY=1;entryDx=0;entryDy=0;exitX=0.5;exitY=0;exitDx=0;exitDy=0;fontFamily=Noto Sans KR;fontSource=https%3A%2F%2Ffonts.googleapis.com%2Fcss%3Ffamily%3DNoto%2BSans%2BKR;" parent="1" source="qAFrtIwpJTjvJXIb0N1f-18" target="qAFrtIwpJTjvJXIb0N1f-89" edge="1">
          <mxGeometry width="50" height="50" relative="1" as="geometry">
            <mxPoint x="520" y="360" as="sourcePoint" />
            <mxPoint x="805" y="390" as="targetPoint" />
          </mxGeometry>
        </mxCell>
        <mxCell id="qAFrtIwpJTjvJXIb0N1f-25" value="" style="endArrow=none;html=1;rounded=0;entryX=0.5;entryY=1;entryDx=0;entryDy=0;exitX=0.5;exitY=0;exitDx=0;exitDy=0;fontFamily=Noto Sans KR;fontSource=https%3A%2F%2Ffonts.googleapis.com%2Fcss%3Ffamily%3DNoto%2BSans%2BKR;" parent="1" source="qAFrtIwpJTjvJXIb0N1f-19" target="qAFrtIwpJTjvJXIb0N1f-89" edge="1">
          <mxGeometry width="50" height="50" relative="1" as="geometry">
            <mxPoint x="520" y="360" as="sourcePoint" />
            <mxPoint x="805" y="390" as="targetPoint" />
          </mxGeometry>
        </mxCell>
        <mxCell id="qAFrtIwpJTjvJXIb0N1f-26" value="" style="endArrow=none;html=1;rounded=0;entryX=0.5;entryY=1;entryDx=0;entryDy=0;exitX=0.5;exitY=0;exitDx=0;exitDy=0;fontFamily=Noto Sans KR;fontSource=https%3A%2F%2Ffonts.googleapis.com%2Fcss%3Ffamily%3DNoto%2BSans%2BKR;" parent="1" source="qAFrtIwpJTjvJXIb0N1f-20" target="qAFrtIwpJTjvJXIb0N1f-89" edge="1">
          <mxGeometry width="50" height="50" relative="1" as="geometry">
            <mxPoint x="520" y="360" as="sourcePoint" />
            <mxPoint x="805" y="390" as="targetPoint" />
          </mxGeometry>
        </mxCell>
        <mxCell id="qAFrtIwpJTjvJXIb0N1f-104" value="" style="endArrow=none;html=1;rounded=0;fontFamily=Helvetica;fontSize=12;fontColor=default;entryX=0.5;entryY=0;entryDx=0;entryDy=0;exitX=1;exitY=0.5;exitDx=0;exitDy=0;" parent="1" source="qAFrtIwpJTjvJXIb0N1f-98" target="qAFrtIwpJTjvJXIb0N1f-89" edge="1">
          <mxGeometry width="50" height="50" relative="1" as="geometry">
            <mxPoint x="670" y="470" as="sourcePoint" />
            <mxPoint x="720" y="420" as="targetPoint" />
            <Array as="points">
              <mxPoint x="895" y="250" />
            </Array>
          </mxGeometry>
        </mxCell>
        <mxCell id="qAFrtIwpJTjvJXIb0N1f-147" value="N" style="edgeLabel;html=1;align=center;verticalAlign=middle;resizable=0;points=[];pointerEvents=0;fontFamily=Helvetica;fontSize=12;fontColor=default;fillColor=none;gradientColor=none;" parent="qAFrtIwpJTjvJXIb0N1f-104" vertex="1" connectable="0">
          <mxGeometry x="0.7859" y="-1" relative="1" as="geometry">
            <mxPoint y="1" as="offset" />
          </mxGeometry>
        </mxCell>
        <mxCell id="qAFrtIwpJTjvJXIb0N1f-105" value="신청" style="rhombus;whiteSpace=wrap;html=1;pointerEvents=0;align=center;verticalAlign=middle;fontFamily=Noto Sans KR;fontSize=12;labelBackgroundColor=none;fontSource=https%3A%2F%2Ffonts.googleapis.com%2Fcss%3Ffamily%3DNoto%2BSans%2BKR;" parent="1" vertex="1">
          <mxGeometry x="990" y="395" width="80" height="40" as="geometry" />
        </mxCell>
        <mxCell id="qAFrtIwpJTjvJXIb0N1f-109" value="" style="endArrow=none;html=1;rounded=0;fontFamily=Helvetica;fontSize=12;fontColor=default;entryX=0;entryY=0.5;entryDx=0;entryDy=0;exitX=1;exitY=0.5;exitDx=0;exitDy=0;shape=link;" parent="1" source="qAFrtIwpJTjvJXIb0N1f-105" target="-he7Gmgk-taw1Ec9X0cC-32" edge="1">
          <mxGeometry width="50" height="50" relative="1" as="geometry">
            <mxPoint x="890" y="600" as="sourcePoint" />
            <mxPoint x="940" y="550" as="targetPoint" />
          </mxGeometry>
        </mxCell>
        <mxCell id="qAFrtIwpJTjvJXIb0N1f-164" value="1" style="edgeLabel;html=1;align=center;verticalAlign=middle;resizable=0;points=[];pointerEvents=0;fontFamily=Helvetica;fontSize=12;fontColor=default;fillColor=none;gradientColor=none;" parent="qAFrtIwpJTjvJXIb0N1f-109" vertex="1" connectable="0">
          <mxGeometry x="0.512" relative="1" as="geometry">
            <mxPoint as="offset" />
          </mxGeometry>
        </mxCell>
        <mxCell id="qAFrtIwpJTjvJXIb0N1f-114" value="" style="group" parent="1" vertex="1" connectable="0">
          <mxGeometry x="1120" y="335" width="230" height="160" as="geometry" />
        </mxCell>
        <mxCell id="-he7Gmgk-taw1Ec9X0cC-32" value="&lt;font data-font-src=&quot;https://fonts.googleapis.com/css?family=Noto+Sans+KR&quot;&gt;강의&lt;/font&gt;" style="rounded=0;whiteSpace=wrap;html=1;fontFamily=Noto Sans KR;fontSource=https%3A%2F%2Ffonts.googleapis.com%2Fcss%3Ffamily%3DNoto%2BSans%2BKR;" parent="qAFrtIwpJTjvJXIb0N1f-114" vertex="1">
          <mxGeometry y="65" width="60" height="30" as="geometry" />
        </mxCell>
        <mxCell id="-he7Gmgk-taw1Ec9X0cC-35" value="&lt;font&gt;강의명&lt;/font&gt;" style="ellipse;whiteSpace=wrap;html=1;fontFamily=Noto Sans KR;fontSource=https%3A%2F%2Ffonts.googleapis.com%2Fcss%3Ffamily%3DNoto%2BSans%2BKR;" parent="qAFrtIwpJTjvJXIb0N1f-114" vertex="1">
          <mxGeometry x="156" y="21" width="50" height="30" as="geometry" />
        </mxCell>
        <mxCell id="-he7Gmgk-taw1Ec9X0cC-36" value="&lt;span style=&quot;&quot;&gt;개설학기&lt;/span&gt;" style="ellipse;whiteSpace=wrap;html=1;fontFamily=Noto Sans KR;fontSource=https%3A%2F%2Ffonts.googleapis.com%2Fcss%3Ffamily%3DNoto%2BSans%2BKR;" parent="qAFrtIwpJTjvJXIb0N1f-114" vertex="1">
          <mxGeometry x="134.5" y="135" width="93" height="30" as="geometry" />
        </mxCell>
        <mxCell id="qAFrtIwpJTjvJXIb0N1f-111" value="" style="endArrow=none;html=1;rounded=0;fontFamily=Helvetica;fontSize=12;fontColor=default;exitX=1;exitY=0.5;exitDx=0;exitDy=0;entryX=0;entryY=0.5;entryDx=0;entryDy=0;" parent="qAFrtIwpJTjvJXIb0N1f-114" source="-he7Gmgk-taw1Ec9X0cC-32" target="-he7Gmgk-taw1Ec9X0cC-35" edge="1">
          <mxGeometry width="50" height="50" relative="1" as="geometry">
            <mxPoint x="187" y="122.5" as="sourcePoint" />
            <mxPoint x="237" y="72.5" as="targetPoint" />
          </mxGeometry>
        </mxCell>
        <mxCell id="qAFrtIwpJTjvJXIb0N1f-112" value="" style="endArrow=none;html=1;rounded=0;fontFamily=Helvetica;fontSize=12;fontColor=default;entryX=1;entryY=0.5;entryDx=0;entryDy=0;exitX=0;exitY=0.5;exitDx=0;exitDy=0;" parent="qAFrtIwpJTjvJXIb0N1f-114" source="-he7Gmgk-taw1Ec9X0cC-36" target="-he7Gmgk-taw1Ec9X0cC-32" edge="1">
          <mxGeometry width="50" height="50" relative="1" as="geometry">
            <mxPoint x="187" y="122.5" as="sourcePoint" />
            <mxPoint x="237" y="72.5" as="targetPoint" />
          </mxGeometry>
        </mxCell>
        <mxCell id="qAFrtIwpJTjvJXIb0N1f-159" value="" style="rounded=0;whiteSpace=wrap;html=1;fontFamily=Noto Sans KR;fontSource=https%3A%2F%2Ffonts.googleapis.com%2Fcss%3Ffamily%3DNoto%2BSans%2BKR;fillColor=none;" parent="qAFrtIwpJTjvJXIb0N1f-114" vertex="1">
          <mxGeometry x="2.5" y="67.5" width="55" height="25" as="geometry" />
        </mxCell>
        <mxCell id="ZxK5Uff4K7wBkZZAbKi1-1" value="학점" style="ellipse;whiteSpace=wrap;html=1;fontFamily=Noto Sans KR;fontSource=https%3A%2F%2Ffonts.googleapis.com%2Fcss%3Ffamily%3DNoto%2BSans%2BKR;" vertex="1" parent="qAFrtIwpJTjvJXIb0N1f-114">
          <mxGeometry x="142" y="58" width="76" height="32.5" as="geometry" />
        </mxCell>
        <mxCell id="ZxK5Uff4K7wBkZZAbKi1-2" value="최대 수강인원" style="ellipse;whiteSpace=wrap;html=1;fontFamily=Noto Sans KR;fontSource=https%3A%2F%2Ffonts.googleapis.com%2Fcss%3Ffamily%3DNoto%2BSans%2BKR;" vertex="1" parent="qAFrtIwpJTjvJXIb0N1f-114">
          <mxGeometry x="143" y="95" width="76" height="32.5" as="geometry" />
        </mxCell>
        <mxCell id="ZxK5Uff4K7wBkZZAbKi1-3" value="" style="endArrow=none;html=1;rounded=0;entryX=0;entryY=0.5;entryDx=0;entryDy=0;exitX=1;exitY=0.5;exitDx=0;exitDy=0;" edge="1" parent="qAFrtIwpJTjvJXIb0N1f-114" source="qAFrtIwpJTjvJXIb0N1f-159" target="ZxK5Uff4K7wBkZZAbKi1-1">
          <mxGeometry width="50" height="50" relative="1" as="geometry">
            <mxPoint x="30" y="115" as="sourcePoint" />
            <mxPoint x="80" y="65" as="targetPoint" />
          </mxGeometry>
        </mxCell>
        <mxCell id="ZxK5Uff4K7wBkZZAbKi1-4" value="" style="endArrow=none;html=1;rounded=0;entryX=0;entryY=0.5;entryDx=0;entryDy=0;exitX=1;exitY=0.5;exitDx=0;exitDy=0;" edge="1" parent="qAFrtIwpJTjvJXIb0N1f-114" source="qAFrtIwpJTjvJXIb0N1f-159" target="ZxK5Uff4K7wBkZZAbKi1-2">
          <mxGeometry width="50" height="50" relative="1" as="geometry">
            <mxPoint x="68" y="90" as="sourcePoint" />
            <mxPoint x="152" y="84" as="targetPoint" />
          </mxGeometry>
        </mxCell>
        <mxCell id="qAFrtIwpJTjvJXIb0N1f-117" value="" style="group" parent="1" vertex="1" connectable="0">
          <mxGeometry x="1120" y="160" width="190" height="110" as="geometry" />
        </mxCell>
        <mxCell id="qAFrtIwpJTjvJXIb0N1f-2" value="&lt;font data-font-src=&quot;https://fonts.googleapis.com/css?family=Noto+Sans+KR&quot;&gt;강의실&lt;/font&gt;" style="rounded=0;whiteSpace=wrap;html=1;fontFamily=Noto Sans KR;fontSource=https%3A%2F%2Ffonts.googleapis.com%2Fcss%3Ffamily%3DNoto%2BSans%2BKR;" parent="qAFrtIwpJTjvJXIb0N1f-117" vertex="1">
          <mxGeometry y="40" width="60" height="30" as="geometry" />
        </mxCell>
        <mxCell id="qAFrtIwpJTjvJXIb0N1f-5" value="&lt;font&gt;건물명&lt;/font&gt;" style="ellipse;whiteSpace=wrap;html=1;fontFamily=Noto Sans KR;fontSource=https%3A%2F%2Ffonts.googleapis.com%2Fcss%3Ffamily%3DNoto%2BSans%2BKR;" parent="qAFrtIwpJTjvJXIb0N1f-117" vertex="1">
          <mxGeometry x="121" y="40" width="50" height="30" as="geometry" />
        </mxCell>
        <mxCell id="qAFrtIwpJTjvJXIb0N1f-6" value="&lt;font&gt;수용인원&lt;/font&gt;" style="ellipse;whiteSpace=wrap;html=1;fontFamily=Noto Sans KR;fontSource=https%3A%2F%2Ffonts.googleapis.com%2Fcss%3Ffamily%3DNoto%2BSans%2BKR;" parent="qAFrtIwpJTjvJXIb0N1f-117" vertex="1">
          <mxGeometry x="121" y="80" width="50" height="30" as="geometry" />
        </mxCell>
        <mxCell id="qAFrtIwpJTjvJXIb0N1f-9" value="" style="endArrow=none;html=1;rounded=0;entryX=1;entryY=0.5;entryDx=0;entryDy=0;fontFamily=Noto Sans KR;fontSource=https%3A%2F%2Ffonts.googleapis.com%2Fcss%3Ffamily%3DNoto%2BSans%2BKR;exitX=0;exitY=0.5;exitDx=0;exitDy=0;" parent="qAFrtIwpJTjvJXIb0N1f-117" source="qAFrtIwpJTjvJXIb0N1f-13" target="qAFrtIwpJTjvJXIb0N1f-2" edge="1">
          <mxGeometry width="50" height="50" relative="1" as="geometry">
            <mxPoint x="122" y="20" as="sourcePoint" />
            <mxPoint x="125" y="250" as="targetPoint" />
          </mxGeometry>
        </mxCell>
        <mxCell id="qAFrtIwpJTjvJXIb0N1f-13" value="&lt;span style=&quot;&quot;&gt;&lt;u&gt;(PK) 강의실번호&lt;/u&gt;&lt;/span&gt;" style="ellipse;whiteSpace=wrap;html=1;fontFamily=Noto Sans KR;fontSource=https%3A%2F%2Ffonts.googleapis.com%2Fcss%3Ffamily%3DNoto%2BSans%2BKR;" parent="qAFrtIwpJTjvJXIb0N1f-117" vertex="1">
          <mxGeometry x="102" width="88" height="30" as="geometry" />
        </mxCell>
        <mxCell id="qAFrtIwpJTjvJXIb0N1f-115" value="" style="endArrow=none;html=1;rounded=0;entryX=1;entryY=0.5;entryDx=0;entryDy=0;fontFamily=Noto Sans KR;fontSource=https%3A%2F%2Ffonts.googleapis.com%2Fcss%3Ffamily%3DNoto%2BSans%2BKR;exitX=0;exitY=0.5;exitDx=0;exitDy=0;" parent="qAFrtIwpJTjvJXIb0N1f-117" source="qAFrtIwpJTjvJXIb0N1f-5" target="qAFrtIwpJTjvJXIb0N1f-2" edge="1">
          <mxGeometry width="50" height="50" relative="1" as="geometry">
            <mxPoint x="112" y="25" as="sourcePoint" />
            <mxPoint x="70" y="65" as="targetPoint" />
          </mxGeometry>
        </mxCell>
        <mxCell id="qAFrtIwpJTjvJXIb0N1f-116" value="" style="endArrow=none;html=1;rounded=0;entryX=1;entryY=0.5;entryDx=0;entryDy=0;fontFamily=Noto Sans KR;fontSource=https%3A%2F%2Ffonts.googleapis.com%2Fcss%3Ffamily%3DNoto%2BSans%2BKR;exitX=0;exitY=0.5;exitDx=0;exitDy=0;" parent="qAFrtIwpJTjvJXIb0N1f-117" source="qAFrtIwpJTjvJXIb0N1f-6" target="qAFrtIwpJTjvJXIb0N1f-2" edge="1">
          <mxGeometry width="50" height="50" relative="1" as="geometry">
            <mxPoint x="122" y="35" as="sourcePoint" />
            <mxPoint x="80" y="75" as="targetPoint" />
          </mxGeometry>
        </mxCell>
        <mxCell id="qAFrtIwpJTjvJXIb0N1f-118" value="" style="endArrow=none;html=1;rounded=0;fontFamily=Helvetica;fontSize=12;fontColor=default;entryX=0.5;entryY=1;entryDx=0;entryDy=0;exitX=0.5;exitY=0;exitDx=0;exitDy=0;shape=link;" parent="1" source="qAFrtIwpJTjvJXIb0N1f-120" target="qAFrtIwpJTjvJXIb0N1f-2" edge="1">
          <mxGeometry width="50" height="50" relative="1" as="geometry">
            <mxPoint x="1150" y="220" as="sourcePoint" />
            <mxPoint x="1340" y="200" as="targetPoint" />
          </mxGeometry>
        </mxCell>
        <mxCell id="qAFrtIwpJTjvJXIb0N1f-162" value="1" style="edgeLabel;html=1;align=center;verticalAlign=middle;resizable=0;points=[];pointerEvents=0;fontFamily=Helvetica;fontSize=12;fontColor=default;fillColor=none;gradientColor=none;" parent="qAFrtIwpJTjvJXIb0N1f-118" vertex="1" connectable="0">
          <mxGeometry x="0.4039" relative="1" as="geometry">
            <mxPoint as="offset" />
          </mxGeometry>
        </mxCell>
        <mxCell id="qAFrtIwpJTjvJXIb0N1f-120" value="강의 진행" style="rhombus;whiteSpace=wrap;html=1;pointerEvents=0;align=center;verticalAlign=middle;fontFamily=Noto Sans KR;fontSize=12;labelBackgroundColor=none;fontSource=https%3A%2F%2Ffonts.googleapis.com%2Fcss%3Ffamily%3DNoto%2BSans%2BKR;" parent="1" vertex="1">
          <mxGeometry x="1110" y="290" width="80" height="40" as="geometry" />
        </mxCell>
        <mxCell id="qAFrtIwpJTjvJXIb0N1f-122" value="" style="endArrow=none;html=1;rounded=0;fontFamily=Helvetica;fontSize=12;fontColor=default;entryX=0.5;entryY=1;entryDx=0;entryDy=0;exitX=0.5;exitY=0;exitDx=0;exitDy=0;shape=link;" parent="1" source="-he7Gmgk-taw1Ec9X0cC-32" target="qAFrtIwpJTjvJXIb0N1f-120" edge="1">
          <mxGeometry width="50" height="50" relative="1" as="geometry">
            <mxPoint x="1290" y="250" as="sourcePoint" />
            <mxPoint x="1340" y="200" as="targetPoint" />
          </mxGeometry>
        </mxCell>
        <mxCell id="qAFrtIwpJTjvJXIb0N1f-161" value="1" style="edgeLabel;html=1;align=center;verticalAlign=middle;resizable=0;points=[];pointerEvents=0;fontFamily=Helvetica;fontSize=12;fontColor=default;fillColor=none;gradientColor=none;" parent="qAFrtIwpJTjvJXIb0N1f-122" vertex="1" connectable="0">
          <mxGeometry x="-0.116" y="-1" relative="1" as="geometry">
            <mxPoint x="-2" as="offset" />
          </mxGeometry>
        </mxCell>
        <mxCell id="qAFrtIwpJTjvJXIb0N1f-124" value="" style="group" parent="1" vertex="1" connectable="0">
          <mxGeometry x="500" y="230" width="270" height="100" as="geometry" />
        </mxCell>
        <mxCell id="qAFrtIwpJTjvJXIb0N1f-77" value="&lt;font&gt;&lt;u&gt;(FK) 수강신청번호&lt;/u&gt;&lt;/font&gt;" style="ellipse;whiteSpace=wrap;html=1;fontFamily=Noto Sans KR;fontSource=https%3A%2F%2Ffonts.googleapis.com%2Fcss%3Ffamily%3DNoto%2BSans%2BKR;" parent="qAFrtIwpJTjvJXIb0N1f-124" vertex="1">
          <mxGeometry x="30" y="70" width="100" height="30" as="geometry" />
        </mxCell>
        <mxCell id="qAFrtIwpJTjvJXIb0N1f-78" value="&lt;span style=&quot;&quot;&gt;만족도 점수&lt;/span&gt;" style="ellipse;whiteSpace=wrap;html=1;fontFamily=Noto Sans KR;fontSource=https%3A%2F%2Ffonts.googleapis.com%2Fcss%3Ffamily%3DNoto%2BSans%2BKR;" parent="qAFrtIwpJTjvJXIb0N1f-124" vertex="1">
          <mxGeometry x="134" y="70" width="66" height="30" as="geometry" />
        </mxCell>
        <mxCell id="qAFrtIwpJTjvJXIb0N1f-79" value="&lt;font&gt;피드백 내용&lt;/font&gt;" style="ellipse;whiteSpace=wrap;html=1;fontFamily=Noto Sans KR;fontSource=https%3A%2F%2Ffonts.googleapis.com%2Fcss%3Ffamily%3DNoto%2BSans%2BKR;" parent="qAFrtIwpJTjvJXIb0N1f-124" vertex="1">
          <mxGeometry x="208" y="70" width="62" height="30" as="geometry" />
        </mxCell>
        <mxCell id="qAFrtIwpJTjvJXIb0N1f-98" value="강의 평가" style="rhombus;whiteSpace=wrap;html=1;pointerEvents=0;align=center;verticalAlign=middle;fontFamily=Noto Sans KR;fontSize=12;labelBackgroundColor=none;fontSource=https%3A%2F%2Ffonts.googleapis.com%2Fcss%3Ffamily%3DNoto%2BSans%2BKR;" parent="qAFrtIwpJTjvJXIb0N1f-124" vertex="1">
          <mxGeometry x="90" width="80" height="40" as="geometry" />
        </mxCell>
        <mxCell id="qAFrtIwpJTjvJXIb0N1f-81" value="" style="endArrow=none;html=1;rounded=0;entryX=0.5;entryY=1;entryDx=0;entryDy=0;exitX=0.5;exitY=0;exitDx=0;exitDy=0;fontFamily=Noto Sans KR;fontSource=https%3A%2F%2Ffonts.googleapis.com%2Fcss%3Ffamily%3DNoto%2BSans%2BKR;" parent="qAFrtIwpJTjvJXIb0N1f-124" source="qAFrtIwpJTjvJXIb0N1f-77" target="qAFrtIwpJTjvJXIb0N1f-98" edge="1">
          <mxGeometry width="50" height="50" relative="1" as="geometry">
            <mxPoint x="247" y="315" as="sourcePoint" />
            <mxPoint x="253" y="90" as="targetPoint" />
          </mxGeometry>
        </mxCell>
        <mxCell id="qAFrtIwpJTjvJXIb0N1f-82" value="" style="endArrow=none;html=1;rounded=0;entryX=0.5;entryY=1;entryDx=0;entryDy=0;exitX=0.5;exitY=0;exitDx=0;exitDy=0;fontFamily=Noto Sans KR;fontSource=https%3A%2F%2Ffonts.googleapis.com%2Fcss%3Ffamily%3DNoto%2BSans%2BKR;" parent="qAFrtIwpJTjvJXIb0N1f-124" source="qAFrtIwpJTjvJXIb0N1f-78" target="qAFrtIwpJTjvJXIb0N1f-98" edge="1">
          <mxGeometry width="50" height="50" relative="1" as="geometry">
            <mxPoint x="247" y="315" as="sourcePoint" />
            <mxPoint x="253" y="90" as="targetPoint" />
          </mxGeometry>
        </mxCell>
        <mxCell id="qAFrtIwpJTjvJXIb0N1f-83" value="" style="endArrow=none;html=1;rounded=0;entryX=0.5;entryY=1;entryDx=0;entryDy=0;exitX=0.5;exitY=0;exitDx=0;exitDy=0;fontFamily=Noto Sans KR;fontSource=https%3A%2F%2Ffonts.googleapis.com%2Fcss%3Ffamily%3DNoto%2BSans%2BKR;" parent="qAFrtIwpJTjvJXIb0N1f-124" source="qAFrtIwpJTjvJXIb0N1f-79" target="qAFrtIwpJTjvJXIb0N1f-98" edge="1">
          <mxGeometry width="50" height="50" relative="1" as="geometry">
            <mxPoint x="247" y="315" as="sourcePoint" />
            <mxPoint x="253" y="90" as="targetPoint" />
          </mxGeometry>
        </mxCell>
        <mxCell id="qAFrtIwpJTjvJXIb0N1f-158" value="" style="rhombus;whiteSpace=wrap;html=1;pointerEvents=0;align=center;verticalAlign=middle;fontFamily=Noto Sans KR;fontSize=12;labelBackgroundColor=none;fontSource=https%3A%2F%2Ffonts.googleapis.com%2Fcss%3Ffamily%3DNoto%2BSans%2BKR;fillColor=none;" parent="qAFrtIwpJTjvJXIb0N1f-124" vertex="1">
          <mxGeometry x="95" y="2.5" width="70" height="35" as="geometry" />
        </mxCell>
        <mxCell id="qAFrtIwpJTjvJXIb0N1f-125" value="" style="endArrow=none;html=1;rounded=0;fontFamily=Helvetica;fontSize=12;fontColor=default;entryX=0;entryY=0.5;entryDx=0;entryDy=0;exitX=1;exitY=0.5;exitDx=0;exitDy=0;strokeColor=default;shape=link;" parent="1" source="-he7Gmgk-taw1Ec9X0cC-1" target="qAFrtIwpJTjvJXIb0N1f-90" edge="1">
          <mxGeometry width="50" height="50" relative="1" as="geometry">
            <mxPoint x="550" y="410" as="sourcePoint" />
            <mxPoint x="600" y="360" as="targetPoint" />
          </mxGeometry>
        </mxCell>
        <mxCell id="qAFrtIwpJTjvJXIb0N1f-148" value="1" style="edgeLabel;html=1;align=center;verticalAlign=middle;resizable=0;points=[];pointerEvents=0;fontFamily=Helvetica;fontSize=12;fontColor=default;fillColor=none;gradientColor=none;" parent="qAFrtIwpJTjvJXIb0N1f-125" vertex="1" connectable="0">
          <mxGeometry x="-0.4977" relative="1" as="geometry">
            <mxPoint as="offset" />
          </mxGeometry>
        </mxCell>
        <mxCell id="qAFrtIwpJTjvJXIb0N1f-126" value="" style="endArrow=none;html=1;rounded=0;fontFamily=Helvetica;fontSize=12;fontColor=default;entryX=0;entryY=0.5;entryDx=0;entryDy=0;exitX=1;exitY=0.5;exitDx=0;exitDy=0;" parent="1" source="qAFrtIwpJTjvJXIb0N1f-90" target="qAFrtIwpJTjvJXIb0N1f-89" edge="1">
          <mxGeometry width="50" height="50" relative="1" as="geometry">
            <mxPoint x="550" y="410" as="sourcePoint" />
            <mxPoint x="600" y="360" as="targetPoint" />
          </mxGeometry>
        </mxCell>
        <mxCell id="qAFrtIwpJTjvJXIb0N1f-149" value="N" style="edgeLabel;html=1;align=center;verticalAlign=middle;resizable=0;points=[];pointerEvents=0;fontFamily=Helvetica;fontSize=12;fontColor=default;fillColor=none;gradientColor=none;" parent="qAFrtIwpJTjvJXIb0N1f-126" vertex="1" connectable="0">
          <mxGeometry x="0.6208" y="1" relative="1" as="geometry">
            <mxPoint as="offset" />
          </mxGeometry>
        </mxCell>
        <mxCell id="qAFrtIwpJTjvJXIb0N1f-127" value="수업" style="rhombus;whiteSpace=wrap;html=1;pointerEvents=0;align=center;verticalAlign=middle;fontFamily=Noto Sans KR;fontSize=12;labelBackgroundColor=none;fontSource=https%3A%2F%2Ffonts.googleapis.com%2Fcss%3Ffamily%3DNoto%2BSans%2BKR;" parent="1" vertex="1">
          <mxGeometry x="1110" y="520" width="80" height="40" as="geometry" />
        </mxCell>
        <mxCell id="qAFrtIwpJTjvJXIb0N1f-128" value="" style="endArrow=none;html=1;rounded=0;fontFamily=Helvetica;fontSize=12;fontColor=default;entryX=0.5;entryY=1;entryDx=0;entryDy=0;exitX=0.5;exitY=0;exitDx=0;exitDy=0;" parent="1" source="qAFrtIwpJTjvJXIb0N1f-127" target="-he7Gmgk-taw1Ec9X0cC-32" edge="1">
          <mxGeometry width="50" height="50" relative="1" as="geometry">
            <mxPoint x="870" y="520" as="sourcePoint" />
            <mxPoint x="920" y="470" as="targetPoint" />
          </mxGeometry>
        </mxCell>
        <mxCell id="qAFrtIwpJTjvJXIb0N1f-142" value="N" style="edgeLabel;html=1;align=center;verticalAlign=middle;resizable=0;points=[];pointerEvents=0;fontFamily=Helvetica;fontSize=12;fontColor=default;fillColor=none;gradientColor=none;" parent="qAFrtIwpJTjvJXIb0N1f-128" vertex="1" connectable="0">
          <mxGeometry x="0.2933" y="1" relative="1" as="geometry">
            <mxPoint as="offset" />
          </mxGeometry>
        </mxCell>
        <mxCell id="qAFrtIwpJTjvJXIb0N1f-129" value="" style="endArrow=none;html=1;rounded=0;fontFamily=Helvetica;fontSize=12;fontColor=default;entryX=0.5;entryY=1;entryDx=0;entryDy=0;exitX=0.5;exitY=0;exitDx=0;exitDy=0;shape=link;" parent="1" source="-he7Gmgk-taw1Ec9X0cC-17" target="qAFrtIwpJTjvJXIb0N1f-127" edge="1">
          <mxGeometry width="50" height="50" relative="1" as="geometry">
            <mxPoint x="870" y="520" as="sourcePoint" />
            <mxPoint x="920" y="470" as="targetPoint" />
          </mxGeometry>
        </mxCell>
        <mxCell id="qAFrtIwpJTjvJXIb0N1f-141" value="&lt;div&gt;1&lt;/div&gt;" style="edgeLabel;html=1;align=center;verticalAlign=middle;resizable=0;points=[];pointerEvents=0;fontFamily=Helvetica;fontSize=12;fontColor=default;fillColor=none;gradientColor=none;" parent="qAFrtIwpJTjvJXIb0N1f-129" vertex="1" connectable="0">
          <mxGeometry x="0.075" y="-1" relative="1" as="geometry">
            <mxPoint x="-2" as="offset" />
          </mxGeometry>
        </mxCell>
        <mxCell id="qAFrtIwpJTjvJXIb0N1f-137" value="" style="group" parent="1" vertex="1" connectable="0">
          <mxGeometry x="570" y="570" width="235" height="270" as="geometry" />
        </mxCell>
        <mxCell id="qAFrtIwpJTjvJXIb0N1f-44" value="&lt;font&gt;최종 성적&lt;/font&gt;" style="ellipse;whiteSpace=wrap;html=1;fontFamily=Noto Sans KR;fontSource=https%3A%2F%2Ffonts.googleapis.com%2Fcss%3Ffamily%3DNoto%2BSans%2BKR;" parent="qAFrtIwpJTjvJXIb0N1f-137" vertex="1">
          <mxGeometry x="32.5" y="240" width="50" height="30" as="geometry" />
        </mxCell>
        <mxCell id="qAFrtIwpJTjvJXIb0N1f-37" value="&lt;font&gt;성적 정보&lt;/font&gt;" style="rounded=0;whiteSpace=wrap;html=1;fontFamily=Noto Sans KR;fontSource=https%3A%2F%2Ffonts.googleapis.com%2Fcss%3Ffamily%3DNoto%2BSans%2BKR;" parent="qAFrtIwpJTjvJXIb0N1f-137" vertex="1">
          <mxGeometry x="175" y="120" width="60" height="30" as="geometry" />
        </mxCell>
        <mxCell id="qAFrtIwpJTjvJXIb0N1f-38" value="&lt;font&gt;(PK) 성적번호&lt;/font&gt;" style="ellipse;whiteSpace=wrap;html=1;fontFamily=Noto Sans KR;fontSource=https%3A%2F%2Ffonts.googleapis.com%2Fcss%3Ffamily%3DNoto%2BSans%2BKR;fontStyle=4" parent="qAFrtIwpJTjvJXIb0N1f-137" vertex="1">
          <mxGeometry x="20" width="75" height="30" as="geometry" />
        </mxCell>
        <mxCell id="qAFrtIwpJTjvJXIb0N1f-39" value="&lt;font&gt;&lt;u&gt;(FK) 수강신청번호&lt;/u&gt;&lt;/font&gt;" style="ellipse;whiteSpace=wrap;html=1;fontFamily=Noto Sans KR;fontSource=https%3A%2F%2Ffonts.googleapis.com%2Fcss%3Ffamily%3DNoto%2BSans%2BKR;" parent="qAFrtIwpJTjvJXIb0N1f-137" vertex="1">
          <mxGeometry x="9.25" y="40" width="96.5" height="30" as="geometry" />
        </mxCell>
        <mxCell id="qAFrtIwpJTjvJXIb0N1f-40" value="&lt;font&gt;중간고사 점수&lt;/font&gt;" style="ellipse;whiteSpace=wrap;html=1;fontFamily=Noto Sans KR;fontSource=https%3A%2F%2Ffonts.googleapis.com%2Fcss%3Ffamily%3DNoto%2BSans%2BKR;" parent="qAFrtIwpJTjvJXIb0N1f-137" vertex="1">
          <mxGeometry x="19" y="80" width="77" height="30" as="geometry" />
        </mxCell>
        <mxCell id="qAFrtIwpJTjvJXIb0N1f-41" value="&lt;font&gt;기말고사 점수&lt;/font&gt;" style="ellipse;whiteSpace=wrap;html=1;fontFamily=Noto Sans KR;fontSource=https%3A%2F%2Ffonts.googleapis.com%2Fcss%3Ffamily%3DNoto%2BSans%2BKR;" parent="qAFrtIwpJTjvJXIb0N1f-137" vertex="1">
          <mxGeometry x="17.5" y="120" width="80" height="30" as="geometry" />
        </mxCell>
        <mxCell id="qAFrtIwpJTjvJXIb0N1f-42" value="&lt;font&gt;과제 점수&lt;/font&gt;" style="ellipse;whiteSpace=wrap;html=1;fontFamily=Noto Sans KR;fontSource=https%3A%2F%2Ffonts.googleapis.com%2Fcss%3Ffamily%3DNoto%2BSans%2BKR;" parent="qAFrtIwpJTjvJXIb0N1f-137" vertex="1">
          <mxGeometry x="32.5" y="160" width="50" height="30" as="geometry" />
        </mxCell>
        <mxCell id="qAFrtIwpJTjvJXIb0N1f-43" value="&lt;font&gt;출석 점수&lt;/font&gt;" style="ellipse;whiteSpace=wrap;html=1;fontFamily=Noto Sans KR;fontSource=https%3A%2F%2Ffonts.googleapis.com%2Fcss%3Ffamily%3DNoto%2BSans%2BKR;" parent="qAFrtIwpJTjvJXIb0N1f-137" vertex="1">
          <mxGeometry x="32.5" y="200" width="50" height="30" as="geometry" />
        </mxCell>
        <mxCell id="qAFrtIwpJTjvJXIb0N1f-45" value="" style="endArrow=none;html=1;rounded=0;entryX=0;entryY=0.5;entryDx=0;entryDy=0;exitX=1;exitY=0.5;exitDx=0;exitDy=0;fontFamily=Noto Sans KR;fontSource=https%3A%2F%2Ffonts.googleapis.com%2Fcss%3Ffamily%3DNoto%2BSans%2BKR;" parent="qAFrtIwpJTjvJXIb0N1f-137" source="qAFrtIwpJTjvJXIb0N1f-38" target="qAFrtIwpJTjvJXIb0N1f-37" edge="1">
          <mxGeometry width="50" height="50" relative="1" as="geometry">
            <mxPoint x="235" y="320" as="sourcePoint" />
            <mxPoint x="285" y="270" as="targetPoint" />
          </mxGeometry>
        </mxCell>
        <mxCell id="qAFrtIwpJTjvJXIb0N1f-131" value="" style="endArrow=none;html=1;rounded=0;entryX=0;entryY=0.5;entryDx=0;entryDy=0;exitX=1;exitY=0.5;exitDx=0;exitDy=0;fontFamily=Noto Sans KR;fontSource=https%3A%2F%2Ffonts.googleapis.com%2Fcss%3Ffamily%3DNoto%2BSans%2BKR;" parent="qAFrtIwpJTjvJXIb0N1f-137" source="qAFrtIwpJTjvJXIb0N1f-39" target="qAFrtIwpJTjvJXIb0N1f-37" edge="1">
          <mxGeometry width="50" height="50" relative="1" as="geometry">
            <mxPoint x="75" y="25" as="sourcePoint" />
            <mxPoint x="200" y="85" as="targetPoint" />
          </mxGeometry>
        </mxCell>
        <mxCell id="qAFrtIwpJTjvJXIb0N1f-132" value="" style="endArrow=none;html=1;rounded=0;entryX=0;entryY=0.5;entryDx=0;entryDy=0;exitX=1;exitY=0.5;exitDx=0;exitDy=0;fontFamily=Noto Sans KR;fontSource=https%3A%2F%2Ffonts.googleapis.com%2Fcss%3Ffamily%3DNoto%2BSans%2BKR;" parent="qAFrtIwpJTjvJXIb0N1f-137" source="qAFrtIwpJTjvJXIb0N1f-40" target="qAFrtIwpJTjvJXIb0N1f-37" edge="1">
          <mxGeometry width="50" height="50" relative="1" as="geometry">
            <mxPoint x="85" y="65" as="sourcePoint" />
            <mxPoint x="200" y="85" as="targetPoint" />
          </mxGeometry>
        </mxCell>
        <mxCell id="qAFrtIwpJTjvJXIb0N1f-133" value="" style="endArrow=none;html=1;rounded=0;entryX=0;entryY=0.5;entryDx=0;entryDy=0;exitX=1;exitY=0.5;exitDx=0;exitDy=0;fontFamily=Noto Sans KR;fontSource=https%3A%2F%2Ffonts.googleapis.com%2Fcss%3Ffamily%3DNoto%2BSans%2BKR;" parent="qAFrtIwpJTjvJXIb0N1f-137" source="qAFrtIwpJTjvJXIb0N1f-41" target="qAFrtIwpJTjvJXIb0N1f-37" edge="1">
          <mxGeometry width="50" height="50" relative="1" as="geometry">
            <mxPoint x="87" y="125" as="sourcePoint" />
            <mxPoint x="200" y="85" as="targetPoint" />
          </mxGeometry>
        </mxCell>
        <mxCell id="qAFrtIwpJTjvJXIb0N1f-134" value="" style="endArrow=none;html=1;rounded=0;entryX=0;entryY=0.5;entryDx=0;entryDy=0;exitX=1;exitY=0.5;exitDx=0;exitDy=0;fontFamily=Noto Sans KR;fontSource=https%3A%2F%2Ffonts.googleapis.com%2Fcss%3Ffamily%3DNoto%2BSans%2BKR;" parent="qAFrtIwpJTjvJXIb0N1f-137" source="qAFrtIwpJTjvJXIb0N1f-42" target="qAFrtIwpJTjvJXIb0N1f-37" edge="1">
          <mxGeometry width="50" height="50" relative="1" as="geometry">
            <mxPoint x="87" y="175" as="sourcePoint" />
            <mxPoint x="200" y="85" as="targetPoint" />
          </mxGeometry>
        </mxCell>
        <mxCell id="qAFrtIwpJTjvJXIb0N1f-135" value="" style="endArrow=none;html=1;rounded=0;entryX=0;entryY=0.5;entryDx=0;entryDy=0;exitX=1;exitY=0.5;exitDx=0;exitDy=0;fontFamily=Noto Sans KR;fontSource=https%3A%2F%2Ffonts.googleapis.com%2Fcss%3Ffamily%3DNoto%2BSans%2BKR;" parent="qAFrtIwpJTjvJXIb0N1f-137" source="qAFrtIwpJTjvJXIb0N1f-43" target="qAFrtIwpJTjvJXIb0N1f-37" edge="1">
          <mxGeometry width="50" height="50" relative="1" as="geometry">
            <mxPoint x="75" y="235" as="sourcePoint" />
            <mxPoint x="200" y="85" as="targetPoint" />
          </mxGeometry>
        </mxCell>
        <mxCell id="qAFrtIwpJTjvJXIb0N1f-136" value="" style="endArrow=none;html=1;rounded=0;entryX=0;entryY=0.5;entryDx=0;entryDy=0;exitX=1;exitY=0.5;exitDx=0;exitDy=0;fontFamily=Noto Sans KR;fontSource=https%3A%2F%2Ffonts.googleapis.com%2Fcss%3Ffamily%3DNoto%2BSans%2BKR;" parent="qAFrtIwpJTjvJXIb0N1f-137" source="qAFrtIwpJTjvJXIb0N1f-44" target="qAFrtIwpJTjvJXIb0N1f-37" edge="1">
          <mxGeometry width="50" height="50" relative="1" as="geometry">
            <mxPoint x="72" y="285" as="sourcePoint" />
            <mxPoint x="200" y="85" as="targetPoint" />
          </mxGeometry>
        </mxCell>
        <mxCell id="qAFrtIwpJTjvJXIb0N1f-138" value="" style="endArrow=none;html=1;rounded=0;fontFamily=Helvetica;fontSize=12;fontColor=default;entryX=0.5;entryY=1;entryDx=0;entryDy=0;exitX=0.5;exitY=0;exitDx=0;exitDy=0;shape=link;" parent="1" source="qAFrtIwpJTjvJXIb0N1f-139" target="qAFrtIwpJTjvJXIb0N1f-89" edge="1">
          <mxGeometry width="50" height="50" relative="1" as="geometry">
            <mxPoint x="895" y="650" as="sourcePoint" />
            <mxPoint x="770" y="540" as="targetPoint" />
          </mxGeometry>
        </mxCell>
        <mxCell id="qAFrtIwpJTjvJXIb0N1f-150" value="1" style="edgeLabel;html=1;align=center;verticalAlign=middle;resizable=0;points=[];pointerEvents=0;fontFamily=Helvetica;fontSize=12;fontColor=default;fillColor=none;gradientColor=none;" parent="qAFrtIwpJTjvJXIb0N1f-138" vertex="1" connectable="0">
          <mxGeometry x="0.2235" y="1" relative="1" as="geometry">
            <mxPoint as="offset" />
          </mxGeometry>
        </mxCell>
        <mxCell id="qAFrtIwpJTjvJXIb0N1f-139" value="성적 평가" style="rhombus;whiteSpace=wrap;html=1;pointerEvents=0;align=center;verticalAlign=middle;fontFamily=Noto Sans KR;fontSize=12;labelBackgroundColor=none;fontSource=https%3A%2F%2Ffonts.googleapis.com%2Fcss%3Ffamily%3DNoto%2BSans%2BKR;" parent="1" vertex="1">
          <mxGeometry x="855" y="685" width="80" height="40" as="geometry" />
        </mxCell>
        <mxCell id="qAFrtIwpJTjvJXIb0N1f-140" value="" style="endArrow=none;html=1;rounded=0;fontFamily=Helvetica;fontSize=12;fontColor=default;entryX=0;entryY=0.5;entryDx=0;entryDy=0;exitX=1;exitY=0.5;exitDx=0;exitDy=0;shape=link;" parent="1" source="qAFrtIwpJTjvJXIb0N1f-37" target="qAFrtIwpJTjvJXIb0N1f-139" edge="1">
          <mxGeometry width="50" height="50" relative="1" as="geometry">
            <mxPoint x="800" y="650" as="sourcePoint" />
            <mxPoint x="850" y="600" as="targetPoint" />
          </mxGeometry>
        </mxCell>
        <mxCell id="qAFrtIwpJTjvJXIb0N1f-151" value="1" style="edgeLabel;html=1;align=center;verticalAlign=middle;resizable=0;points=[];pointerEvents=0;fontFamily=Helvetica;fontSize=12;fontColor=default;fillColor=none;gradientColor=none;" parent="qAFrtIwpJTjvJXIb0N1f-140" vertex="1" connectable="0">
          <mxGeometry x="0.36" y="3" relative="1" as="geometry">
            <mxPoint y="1" as="offset" />
          </mxGeometry>
        </mxCell>
        <mxCell id="-he7Gmgk-taw1Ec9X0cC-1" value="&lt;font data-font-src=&quot;https://fonts.googleapis.com/css?family=Noto+Sans+KR&quot;&gt;학생&lt;/font&gt;" style="rounded=0;whiteSpace=wrap;html=1;fontFamily=Noto Sans KR;fontSource=https%3A%2F%2Ffonts.googleapis.com%2Fcss%3Ffamily%3DNoto%2BSans%2BKR;" parent="1" vertex="1">
          <mxGeometry x="315" y="400" width="60" height="30" as="geometry" />
        </mxCell>
        <mxCell id="-he7Gmgk-taw1Ec9X0cC-2" value="&lt;font&gt;(PK)학번&lt;/font&gt;" style="ellipse;whiteSpace=wrap;html=1;fontFamily=Noto Sans KR;fontSource=https%3A%2F%2Ffonts.googleapis.com%2Fcss%3Ffamily%3DNoto%2BSans%2BKR;fontStyle=4" parent="1" vertex="1">
          <mxGeometry x="180" y="470" width="50" height="30" as="geometry" />
        </mxCell>
        <mxCell id="-he7Gmgk-taw1Ec9X0cC-3" value="&lt;font&gt;이름&lt;/font&gt;" style="ellipse;whiteSpace=wrap;html=1;fontFamily=Noto Sans KR;fontSource=https%3A%2F%2Ffonts.googleapis.com%2Fcss%3Ffamily%3DNoto%2BSans%2BKR;" parent="1" vertex="1">
          <mxGeometry x="237" y="470" width="50" height="30" as="geometry" />
        </mxCell>
        <mxCell id="-he7Gmgk-taw1Ec9X0cC-4" value="&lt;font&gt;생년월일&lt;/font&gt;" style="ellipse;whiteSpace=wrap;html=1;fontFamily=Noto Sans KR;fontSource=https%3A%2F%2Ffonts.googleapis.com%2Fcss%3Ffamily%3DNoto%2BSans%2BKR;" parent="1" vertex="1">
          <mxGeometry x="293" y="470" width="50" height="30" as="geometry" />
        </mxCell>
        <mxCell id="-he7Gmgk-taw1Ec9X0cC-5" value="&lt;font&gt;학년&lt;/font&gt;" style="ellipse;whiteSpace=wrap;html=1;fontFamily=Noto Sans KR;fontSource=https%3A%2F%2Ffonts.googleapis.com%2Fcss%3Ffamily%3DNoto%2BSans%2BKR;" parent="1" vertex="1">
          <mxGeometry x="350" y="470" width="50" height="30" as="geometry" />
        </mxCell>
        <mxCell id="-he7Gmgk-taw1Ec9X0cC-6" value="&lt;font&gt;연락처&lt;/font&gt;" style="ellipse;whiteSpace=wrap;html=1;fontFamily=Noto Sans KR;fontSource=https%3A%2F%2Ffonts.googleapis.com%2Fcss%3Ffamily%3DNoto%2BSans%2BKR;" parent="1" vertex="1">
          <mxGeometry x="407" y="470" width="50" height="30" as="geometry" />
        </mxCell>
        <mxCell id="-he7Gmgk-taw1Ec9X0cC-7" value="이메일" style="ellipse;whiteSpace=wrap;html=1;fontFamily=Noto Sans KR;fontSource=https%3A%2F%2Ffonts.googleapis.com%2Fcss%3Ffamily%3DNoto%2BSans%2BKR;" parent="1" vertex="1">
          <mxGeometry x="463" y="470" width="50" height="30" as="geometry" />
        </mxCell>
        <mxCell id="-he7Gmgk-taw1Ec9X0cC-10" value="" style="endArrow=none;html=1;rounded=0;entryX=0.5;entryY=1;entryDx=0;entryDy=0;exitX=0.5;exitY=0;exitDx=0;exitDy=0;fontFamily=Noto Sans KR;fontSource=https%3A%2F%2Ffonts.googleapis.com%2Fcss%3Ffamily%3DNoto%2BSans%2BKR;" parent="1" source="-he7Gmgk-taw1Ec9X0cC-2" target="-he7Gmgk-taw1Ec9X0cC-1" edge="1">
          <mxGeometry width="50" height="50" relative="1" as="geometry">
            <mxPoint x="380" y="660" as="sourcePoint" />
            <mxPoint x="430" y="610" as="targetPoint" />
          </mxGeometry>
        </mxCell>
        <mxCell id="-he7Gmgk-taw1Ec9X0cC-11" value="" style="endArrow=none;html=1;rounded=0;entryX=0.5;entryY=1;entryDx=0;entryDy=0;exitX=0.5;exitY=0;exitDx=0;exitDy=0;fontFamily=Noto Sans KR;fontSource=https%3A%2F%2Ffonts.googleapis.com%2Fcss%3Ffamily%3DNoto%2BSans%2BKR;" parent="1" source="-he7Gmgk-taw1Ec9X0cC-3" target="-he7Gmgk-taw1Ec9X0cC-1" edge="1">
          <mxGeometry width="50" height="50" relative="1" as="geometry">
            <mxPoint x="380" y="660" as="sourcePoint" />
            <mxPoint x="430" y="610" as="targetPoint" />
          </mxGeometry>
        </mxCell>
        <mxCell id="-he7Gmgk-taw1Ec9X0cC-12" value="" style="endArrow=none;html=1;rounded=0;entryX=0.5;entryY=1;entryDx=0;entryDy=0;exitX=0.5;exitY=0;exitDx=0;exitDy=0;fontFamily=Noto Sans KR;fontSource=https%3A%2F%2Ffonts.googleapis.com%2Fcss%3Ffamily%3DNoto%2BSans%2BKR;" parent="1" source="-he7Gmgk-taw1Ec9X0cC-4" target="-he7Gmgk-taw1Ec9X0cC-1" edge="1">
          <mxGeometry width="50" height="50" relative="1" as="geometry">
            <mxPoint x="380" y="660" as="sourcePoint" />
            <mxPoint x="430" y="610" as="targetPoint" />
          </mxGeometry>
        </mxCell>
        <mxCell id="-he7Gmgk-taw1Ec9X0cC-13" value="" style="endArrow=none;html=1;rounded=0;entryX=0.5;entryY=1;entryDx=0;entryDy=0;exitX=0.5;exitY=0;exitDx=0;exitDy=0;fontFamily=Noto Sans KR;fontSource=https%3A%2F%2Ffonts.googleapis.com%2Fcss%3Ffamily%3DNoto%2BSans%2BKR;" parent="1" source="-he7Gmgk-taw1Ec9X0cC-5" target="-he7Gmgk-taw1Ec9X0cC-1" edge="1">
          <mxGeometry width="50" height="50" relative="1" as="geometry">
            <mxPoint x="380" y="660" as="sourcePoint" />
            <mxPoint x="430" y="610" as="targetPoint" />
          </mxGeometry>
        </mxCell>
        <mxCell id="-he7Gmgk-taw1Ec9X0cC-14" value="" style="endArrow=none;html=1;rounded=0;entryX=0.5;entryY=1;entryDx=0;entryDy=0;exitX=0.5;exitY=0;exitDx=0;exitDy=0;fontFamily=Noto Sans KR;fontSource=https%3A%2F%2Ffonts.googleapis.com%2Fcss%3Ffamily%3DNoto%2BSans%2BKR;" parent="1" source="-he7Gmgk-taw1Ec9X0cC-6" target="-he7Gmgk-taw1Ec9X0cC-1" edge="1">
          <mxGeometry width="50" height="50" relative="1" as="geometry">
            <mxPoint x="380" y="660" as="sourcePoint" />
            <mxPoint x="430" y="610" as="targetPoint" />
          </mxGeometry>
        </mxCell>
        <mxCell id="-he7Gmgk-taw1Ec9X0cC-15" value="" style="endArrow=none;html=1;rounded=0;entryX=0.5;entryY=1;entryDx=0;entryDy=0;exitX=0.5;exitY=0;exitDx=0;exitDy=0;fontFamily=Noto Sans KR;fontSource=https%3A%2F%2Ffonts.googleapis.com%2Fcss%3Ffamily%3DNoto%2BSans%2BKR;" parent="1" source="-he7Gmgk-taw1Ec9X0cC-7" target="-he7Gmgk-taw1Ec9X0cC-1" edge="1">
          <mxGeometry width="50" height="50" relative="1" as="geometry">
            <mxPoint x="380" y="660" as="sourcePoint" />
            <mxPoint x="430" y="610" as="targetPoint" />
          </mxGeometry>
        </mxCell>
        <mxCell id="qAFrtIwpJTjvJXIb0N1f-76" value="&lt;font&gt;(PK)평가번호&lt;/font&gt;" style="ellipse;whiteSpace=wrap;html=1;fontFamily=Noto Sans KR;fontSource=https%3A%2F%2Ffonts.googleapis.com%2Fcss%3Ffamily%3DNoto%2BSans%2BKR;fontStyle=4" parent="1" vertex="1">
          <mxGeometry x="450" y="300" width="70" height="30" as="geometry" />
        </mxCell>
        <mxCell id="qAFrtIwpJTjvJXIb0N1f-80" value="" style="endArrow=none;html=1;rounded=0;entryX=0.5;entryY=1;entryDx=0;entryDy=0;exitX=0.5;exitY=0;exitDx=0;exitDy=0;fontFamily=Noto Sans KR;fontSource=https%3A%2F%2Ffonts.googleapis.com%2Fcss%3Ffamily%3DNoto%2BSans%2BKR;" parent="1" source="qAFrtIwpJTjvJXIb0N1f-76" target="qAFrtIwpJTjvJXIb0N1f-98" edge="1">
          <mxGeometry width="50" height="50" relative="1" as="geometry">
            <mxPoint x="747" y="545" as="sourcePoint" />
            <mxPoint x="753" y="320" as="targetPoint" />
          </mxGeometry>
        </mxCell>
        <mxCell id="qAFrtIwpJTjvJXIb0N1f-19" value="&lt;font&gt;&lt;u&gt;(FK) 강의코드&lt;/u&gt;&lt;/font&gt;" style="ellipse;whiteSpace=wrap;html=1;fontFamily=Noto Sans KR;fontSource=https%3A%2F%2Ffonts.googleapis.com%2Fcss%3Ffamily%3DNoto%2BSans%2BKR;" parent="1" vertex="1">
          <mxGeometry x="900" y="460" width="80" height="30" as="geometry" />
        </mxCell>
        <mxCell id="qAFrtIwpJTjvJXIb0N1f-155" value="" style="group" parent="1" vertex="1" connectable="0">
          <mxGeometry x="862.5" y="400" width="65" height="30" as="geometry" />
        </mxCell>
        <mxCell id="qAFrtIwpJTjvJXIb0N1f-89" value="수강정보" style="rounded=0;whiteSpace=wrap;html=1;pointerEvents=0;align=center;verticalAlign=middle;fontFamily=Helvetica;fontSize=12;fontColor=default;fillColor=none;gradientColor=none;" parent="qAFrtIwpJTjvJXIb0N1f-155" vertex="1">
          <mxGeometry width="65" height="30" as="geometry" />
        </mxCell>
        <mxCell id="qAFrtIwpJTjvJXIb0N1f-154" value="" style="rounded=0;whiteSpace=wrap;html=1;pointerEvents=0;align=center;verticalAlign=middle;fontFamily=Helvetica;fontSize=12;fontColor=default;fillColor=none;gradientColor=none;strokeColor=default;" parent="qAFrtIwpJTjvJXIb0N1f-155" vertex="1">
          <mxGeometry x="2.5" y="2.5" width="60" height="25" as="geometry" />
        </mxCell>
        <mxCell id="qAFrtIwpJTjvJXIb0N1f-157" value="" style="group" parent="1" vertex="1" connectable="0">
          <mxGeometry x="587.5" y="395" width="80" height="40" as="geometry" />
        </mxCell>
        <mxCell id="qAFrtIwpJTjvJXIb0N1f-90" value="수강" style="rhombus;whiteSpace=wrap;html=1;pointerEvents=0;align=center;verticalAlign=middle;fontFamily=Noto Sans KR;fontSize=12;labelBackgroundColor=none;fontSource=https%3A%2F%2Ffonts.googleapis.com%2Fcss%3Ffamily%3DNoto%2BSans%2BKR;strokeColor=default;" parent="qAFrtIwpJTjvJXIb0N1f-157" vertex="1">
          <mxGeometry width="80" height="40" as="geometry" />
        </mxCell>
        <mxCell id="qAFrtIwpJTjvJXIb0N1f-156" value="" style="rhombus;whiteSpace=wrap;html=1;pointerEvents=0;align=center;verticalAlign=middle;fontFamily=Noto Sans KR;fontSize=12;labelBackgroundColor=none;fontSource=https%3A%2F%2Ffonts.googleapis.com%2Fcss%3Ffamily%3DNoto%2BSans%2BKR;strokeColor=default;fillColor=none;" parent="qAFrtIwpJTjvJXIb0N1f-157" vertex="1">
          <mxGeometry x="5" y="2.5" width="70" height="35" as="geometry" />
        </mxCell>
        <mxCell id="p_DmAXAKI90noaZqmgIT-6" value="지도" style="rhombus;whiteSpace=wrap;html=1;pointerEvents=0;align=center;verticalAlign=middle;fontFamily=Noto Sans KR;fontSize=12;labelBackgroundColor=none;fontSource=https%3A%2F%2Ffonts.googleapis.com%2Fcss%3Ffamily%3DNoto%2BSans%2BKR;" parent="1" vertex="1">
          <mxGeometry x="560" y="870" width="80" height="40" as="geometry" />
        </mxCell>
        <mxCell id="p_DmAXAKI90noaZqmgIT-7" value="" style="rhombus;whiteSpace=wrap;html=1;pointerEvents=0;align=center;verticalAlign=middle;fontFamily=Noto Sans KR;fontSize=12;labelBackgroundColor=none;fontSource=https%3A%2F%2Ffonts.googleapis.com%2Fcss%3Ffamily%3DNoto%2BSans%2BKR;fillColor=none;" parent="1" vertex="1">
          <mxGeometry x="565" y="872.5" width="70" height="35" as="geometry" />
        </mxCell>
        <mxCell id="p_DmAXAKI90noaZqmgIT-8" value="" style="endArrow=none;html=1;rounded=0;exitX=1;exitY=0.5;exitDx=0;exitDy=0;entryX=0;entryY=0.5;entryDx=0;entryDy=0;shape=link;" parent="1" source="p_DmAXAKI90noaZqmgIT-6" target="-he7Gmgk-taw1Ec9X0cC-17" edge="1">
          <mxGeometry width="50" height="50" relative="1" as="geometry">
            <mxPoint x="670" y="880" as="sourcePoint" />
            <mxPoint x="720" y="830" as="targetPoint" />
            <Array as="points">
              <mxPoint x="900" y="890" />
              <mxPoint x="1030" y="625" />
            </Array>
          </mxGeometry>
        </mxCell>
        <mxCell id="p_DmAXAKI90noaZqmgIT-11" value="1" style="edgeLabel;html=1;align=center;verticalAlign=middle;resizable=0;points=[];" parent="p_DmAXAKI90noaZqmgIT-8" vertex="1" connectable="0">
          <mxGeometry x="-0.7781" y="1" relative="1" as="geometry">
            <mxPoint as="offset" />
          </mxGeometry>
        </mxCell>
        <mxCell id="p_DmAXAKI90noaZqmgIT-14" value="1" style="edgeLabel;html=1;align=center;verticalAlign=middle;resizable=0;points=[];" parent="p_DmAXAKI90noaZqmgIT-8" vertex="1" connectable="0">
          <mxGeometry x="0.8949" y="-1" relative="1" as="geometry">
            <mxPoint as="offset" />
          </mxGeometry>
        </mxCell>
        <mxCell id="p_DmAXAKI90noaZqmgIT-9" value="" style="endArrow=none;html=1;rounded=0;entryX=0;entryY=0.5;entryDx=0;entryDy=0;exitX=0;exitY=0.5;exitDx=0;exitDy=0;" parent="1" source="p_DmAXAKI90noaZqmgIT-6" target="-he7Gmgk-taw1Ec9X0cC-1" edge="1">
          <mxGeometry width="50" height="50" relative="1" as="geometry">
            <mxPoint x="410" y="710" as="sourcePoint" />
            <mxPoint x="460" y="660" as="targetPoint" />
            <Array as="points">
              <mxPoint x="150" y="890" />
              <mxPoint x="150" y="415" />
            </Array>
          </mxGeometry>
        </mxCell>
        <mxCell id="p_DmAXAKI90noaZqmgIT-10" value="N" style="edgeLabel;html=1;align=center;verticalAlign=middle;resizable=0;points=[];" parent="p_DmAXAKI90noaZqmgIT-9" vertex="1" connectable="0">
          <mxGeometry x="-0.4966" y="1" relative="1" as="geometry">
            <mxPoint x="185" as="offset" />
          </mxGeometry>
        </mxCell>
        <mxCell id="p_DmAXAKI90noaZqmgIT-12" value="N" style="edgeLabel;html=1;align=center;verticalAlign=middle;resizable=0;points=[];" parent="p_DmAXAKI90noaZqmgIT-9" vertex="1" connectable="0">
          <mxGeometry x="0.9135" y="2" relative="1" as="geometry">
            <mxPoint as="offset" />
          </mxGeometry>
        </mxCell>
        <mxCell id="p_DmAXAKI90noaZqmgIT-15" value="" style="group" parent="1" vertex="1" connectable="0">
          <mxGeometry x="222" y="965" width="80" height="40" as="geometry" />
        </mxCell>
        <mxCell id="p_DmAXAKI90noaZqmgIT-16" value="소속" style="rhombus;whiteSpace=wrap;html=1;pointerEvents=0;align=center;verticalAlign=middle;fontFamily=Noto Sans KR;fontSize=12;labelBackgroundColor=none;fontSource=https%3A%2F%2Ffonts.googleapis.com%2Fcss%3Ffamily%3DNoto%2BSans%2BKR;strokeColor=default;" parent="p_DmAXAKI90noaZqmgIT-15" vertex="1">
          <mxGeometry width="80" height="40" as="geometry" />
        </mxCell>
        <mxCell id="p_DmAXAKI90noaZqmgIT-47" style="edgeStyle=orthogonalEdgeStyle;rounded=0;orthogonalLoop=1;jettySize=auto;html=1;exitX=1;exitY=0.5;exitDx=0;exitDy=0;entryX=0;entryY=0.5;entryDx=0;entryDy=0;shape=link;" parent="1" source="p_DmAXAKI90noaZqmgIT-18" target="p_DmAXAKI90noaZqmgIT-34" edge="1">
          <mxGeometry relative="1" as="geometry" />
        </mxCell>
        <mxCell id="p_DmAXAKI90noaZqmgIT-48" value="1" style="edgeLabel;html=1;align=center;verticalAlign=middle;resizable=0;points=[];" parent="p_DmAXAKI90noaZqmgIT-47" vertex="1" connectable="0">
          <mxGeometry x="-0.683" y="3" relative="1" as="geometry">
            <mxPoint as="offset" />
          </mxGeometry>
        </mxCell>
        <mxCell id="p_DmAXAKI90noaZqmgIT-49" value="1" style="edgeLabel;html=1;align=center;verticalAlign=middle;resizable=0;points=[];" parent="p_DmAXAKI90noaZqmgIT-47" vertex="1" connectable="0">
          <mxGeometry x="0.7361" y="3" relative="1" as="geometry">
            <mxPoint as="offset" />
          </mxGeometry>
        </mxCell>
        <mxCell id="p_DmAXAKI90noaZqmgIT-18" value="&lt;font data-font-src=&quot;https://fonts.googleapis.com/css?family=Noto+Sans+KR&quot;&gt;학과&lt;/font&gt;" style="rounded=0;whiteSpace=wrap;html=1;fontFamily=Noto Sans KR;fontSource=https%3A%2F%2Ffonts.googleapis.com%2Fcss%3Ffamily%3DNoto%2BSans%2BKR;" parent="1" vertex="1">
          <mxGeometry x="570" y="970" width="60" height="30" as="geometry" />
        </mxCell>
        <mxCell id="p_DmAXAKI90noaZqmgIT-19" value="&lt;font&gt;(PK)학과코드&lt;/font&gt;" style="ellipse;whiteSpace=wrap;html=1;fontFamily=Noto Sans KR;fontSource=https%3A%2F%2Ffonts.googleapis.com%2Fcss%3Ffamily%3DNoto%2BSans%2BKR;fontStyle=4" parent="1" vertex="1">
          <mxGeometry x="520" y="1030" width="88.5" height="30" as="geometry" />
        </mxCell>
        <mxCell id="p_DmAXAKI90noaZqmgIT-22" value="&lt;font&gt;학과명&lt;/font&gt;" style="ellipse;whiteSpace=wrap;html=1;fontFamily=Noto Sans KR;fontSource=https%3A%2F%2Ffonts.googleapis.com%2Fcss%3Ffamily%3DNoto%2BSans%2BKR;fontStyle=0" parent="1" vertex="1">
          <mxGeometry x="620" y="1030" width="50" height="30" as="geometry" />
        </mxCell>
        <mxCell id="p_DmAXAKI90noaZqmgIT-33" value="" style="group" parent="1" vertex="1" connectable="0">
          <mxGeometry x="859.25" y="965" width="80" height="40" as="geometry" />
        </mxCell>
        <mxCell id="p_DmAXAKI90noaZqmgIT-34" value="소속" style="rhombus;whiteSpace=wrap;html=1;pointerEvents=0;align=center;verticalAlign=middle;fontFamily=Noto Sans KR;fontSize=12;labelBackgroundColor=none;fontSource=https%3A%2F%2Ffonts.googleapis.com%2Fcss%3Ffamily%3DNoto%2BSans%2BKR;strokeColor=default;" parent="p_DmAXAKI90noaZqmgIT-33" vertex="1">
          <mxGeometry width="80" height="40" as="geometry" />
        </mxCell>
        <mxCell id="p_DmAXAKI90noaZqmgIT-39" value="" style="endArrow=none;html=1;rounded=0;entryX=0.5;entryY=1;entryDx=0;entryDy=0;exitX=0.5;exitY=0;exitDx=0;exitDy=0;" parent="1" source="p_DmAXAKI90noaZqmgIT-19" target="p_DmAXAKI90noaZqmgIT-18" edge="1">
          <mxGeometry width="50" height="50" relative="1" as="geometry">
            <mxPoint x="440" y="1200" as="sourcePoint" />
            <mxPoint x="490" y="1150" as="targetPoint" />
          </mxGeometry>
        </mxCell>
        <mxCell id="p_DmAXAKI90noaZqmgIT-40" value="" style="endArrow=none;html=1;rounded=0;entryX=0.5;entryY=1;entryDx=0;entryDy=0;exitX=0.5;exitY=0;exitDx=0;exitDy=0;" parent="1" source="p_DmAXAKI90noaZqmgIT-22" target="p_DmAXAKI90noaZqmgIT-18" edge="1">
          <mxGeometry width="50" height="50" relative="1" as="geometry">
            <mxPoint x="574" y="1040" as="sourcePoint" />
            <mxPoint x="610" y="1010" as="targetPoint" />
          </mxGeometry>
        </mxCell>
        <mxCell id="p_DmAXAKI90noaZqmgIT-41" value="" style="endArrow=none;html=1;rounded=0;entryX=0;entryY=0.5;entryDx=0;entryDy=0;exitX=0;exitY=0.5;exitDx=0;exitDy=0;strokeColor=default;shape=link;" parent="1" source="-he7Gmgk-taw1Ec9X0cC-1" target="p_DmAXAKI90noaZqmgIT-16" edge="1">
          <mxGeometry width="50" height="50" relative="1" as="geometry">
            <mxPoint x="550" y="750" as="sourcePoint" />
            <mxPoint x="600" y="700" as="targetPoint" />
            <Array as="points">
              <mxPoint x="90" y="415" />
              <mxPoint x="90" y="985" />
            </Array>
          </mxGeometry>
        </mxCell>
        <mxCell id="p_DmAXAKI90noaZqmgIT-42" value="1" style="edgeLabel;html=1;align=center;verticalAlign=middle;resizable=0;points=[];" parent="p_DmAXAKI90noaZqmgIT-41" vertex="1" connectable="0">
          <mxGeometry x="0.877" y="-1" relative="1" as="geometry">
            <mxPoint as="offset" />
          </mxGeometry>
        </mxCell>
        <mxCell id="p_DmAXAKI90noaZqmgIT-43" value="1" style="edgeLabel;html=1;align=center;verticalAlign=middle;resizable=0;points=[];" parent="p_DmAXAKI90noaZqmgIT-41" vertex="1" connectable="0">
          <mxGeometry x="-0.5858" y="-7" relative="1" as="geometry">
            <mxPoint as="offset" />
          </mxGeometry>
        </mxCell>
        <mxCell id="p_DmAXAKI90noaZqmgIT-44" style="edgeStyle=orthogonalEdgeStyle;rounded=0;orthogonalLoop=1;jettySize=auto;html=1;exitX=1;exitY=0.5;exitDx=0;exitDy=0;entryX=0;entryY=0.5;entryDx=0;entryDy=0;strokeColor=default;shape=link;" parent="1" source="p_DmAXAKI90noaZqmgIT-16" target="p_DmAXAKI90noaZqmgIT-18" edge="1">
          <mxGeometry relative="1" as="geometry" />
        </mxCell>
        <mxCell id="p_DmAXAKI90noaZqmgIT-45" value="1" style="edgeLabel;html=1;align=center;verticalAlign=middle;resizable=0;points=[];" parent="p_DmAXAKI90noaZqmgIT-44" vertex="1" connectable="0">
          <mxGeometry x="0.1418" y="-1" relative="1" as="geometry">
            <mxPoint x="-125" y="-1" as="offset" />
          </mxGeometry>
        </mxCell>
        <mxCell id="p_DmAXAKI90noaZqmgIT-46" value="1" style="edgeLabel;html=1;align=center;verticalAlign=middle;resizable=0;points=[];" parent="p_DmAXAKI90noaZqmgIT-44" vertex="1" connectable="0">
          <mxGeometry x="0.6638" relative="1" as="geometry">
            <mxPoint as="offset" />
          </mxGeometry>
        </mxCell>
        <mxCell id="p_DmAXAKI90noaZqmgIT-50" style="edgeStyle=orthogonalEdgeStyle;rounded=0;orthogonalLoop=1;jettySize=auto;html=1;exitX=0;exitY=0.5;exitDx=0;exitDy=0;entryX=1;entryY=0.5;entryDx=0;entryDy=0;shape=link;" parent="1" source="-he7Gmgk-taw1Ec9X0cC-17" target="p_DmAXAKI90noaZqmgIT-34" edge="1">
          <mxGeometry relative="1" as="geometry">
            <Array as="points">
              <mxPoint x="1000" y="625" />
              <mxPoint x="1000" y="985" />
            </Array>
          </mxGeometry>
        </mxCell>
        <mxCell id="p_DmAXAKI90noaZqmgIT-51" value="1" style="edgeLabel;html=1;align=center;verticalAlign=middle;resizable=0;points=[];" parent="p_DmAXAKI90noaZqmgIT-50" vertex="1" connectable="0">
          <mxGeometry x="0.8785" y="-7" relative="1" as="geometry">
            <mxPoint as="offset" />
          </mxGeometry>
        </mxCell>
        <mxCell id="p_DmAXAKI90noaZqmgIT-52" value="1" style="edgeLabel;html=1;align=center;verticalAlign=middle;resizable=0;points=[];" parent="p_DmAXAKI90noaZqmgIT-50" vertex="1" connectable="0">
          <mxGeometry x="-0.5231" y="-4" relative="1" as="geometry">
            <mxPoint as="offset" />
          </mxGeometry>
        </mxCell>
        <mxCell id="-he7Gmgk-taw1Ec9X0cC-34" value="&lt;font&gt;&lt;u&gt;(PK) 강의코드&lt;/u&gt;&lt;/font&gt;" style="ellipse;whiteSpace=wrap;html=1;fontFamily=Noto Sans KR;fontSource=https%3A%2F%2Ffonts.googleapis.com%2Fcss%3Ffamily%3DNoto%2BSans%2BKR;" parent="1" vertex="1">
          <mxGeometry x="1262" y="320" width="78" height="30" as="geometry" />
        </mxCell>
        <mxCell id="qAFrtIwpJTjvJXIb0N1f-110" value="" style="endArrow=none;html=1;rounded=0;fontFamily=Helvetica;fontSize=12;fontColor=default;entryX=1;entryY=0.5;entryDx=0;entryDy=0;exitX=0;exitY=0.5;exitDx=0;exitDy=0;" parent="1" source="-he7Gmgk-taw1Ec9X0cC-34" target="-he7Gmgk-taw1Ec9X0cC-32" edge="1">
          <mxGeometry width="50" height="50" relative="1" as="geometry">
            <mxPoint x="1307" y="457.5" as="sourcePoint" />
            <mxPoint x="1357" y="407.5" as="targetPoint" />
          </mxGeometry>
        </mxCell>
      </root>
    </mxGraphModel>
  </diagram>
</mxfile>
